<?xml version="1.0" encoding="UTF-8"?>
<svg xmlns="http://www.w3.org/2000/svg" width="1024" height="1024" viewBox="0 0 1024 1024">
  <rect x="48" y="48" width="928" height="928" rx="220" fill="#1c1c1e"/>
  <rect x="50" y="50" width="924" height="924" rx="218" fill="none" stroke="#ffffff" stroke-opacity="0.14" stroke-width="4"/>
  <rect x="104" y="104" width="816" height="816" rx="172" fill="#252527"/>
  <path d="M263 292h498c28 0 51 23 51 51v69H706v318c0 30-24 54-54 54h-55V412H427v318c0 30-24 54-54 54h-55V412h-55c-28 0-51-23-51-51v-18c0-28 23-51 51-51Z" fill="#f5f5f7"/>
  <circle cx="779" cy="758" r="35" fill="#3d9bff"/>
</svg>
